<?xml version="1.0" standalone="no"?><!DOCTYPE svg PUBLIC "-//W3C//DTD SVG 1.1//EN" "http://www.w3.org/Graphics/SVG/1.1/DTD/svg11.dtd"><svg t="1623133763127" class="icon" viewBox="0 0 1025 1024" version="1.1" xmlns="http://www.w3.org/2000/svg" p-id="10450" width="80.078125" height="80" xmlns:xlink="http://www.w3.org/1999/xlink"><defs><style type="text/css"></style></defs><path d="M792.754707 634.735874m-126.909755 0a126.909755 126.909755 0 1 0 253.81951 0 126.909755 126.909755 0 1 0-253.81951 0Z" p-id="10451" fill="#ffffff"></path><path d="M879.778539 792.829168h-16.679568a168.971273 168.971273 0 0 1-145.039719 0h-14.503972a132.711343 132.711343 0 0 0-132.711344 132.711344v42.061518a50.038703 50.038703 0 0 0 47.863108 47.863108h350.270922a49.313505 49.313505 0 0 0 47.863108-47.863108v-42.061518a134.886939 134.886939 0 0 0-137.062535-132.711344zM135.724778 435.30626l277.025864 145.039719a79.046647 79.046647 0 0 1 45.687512 72.51986v290.079439a91.375023 91.375023 0 0 1-136.337337 68.893867l-276.300665-145.03972A78.321449 78.321449 0 0 1 0.11264 791.378771v-290.079439A91.375023 91.375023 0 0 1 135.724778 435.30626zM552.713971 12.515477l280.651858 163.894883a91.375023 91.375023 0 0 1 0 156.642897L552.713971 496.948141a87.023832 87.023832 0 0 1-89.924626 0L182.137488 333.053257a91.375023 91.375023 0 0 1 0-156.642897L462.789345 12.515477a87.023832 87.023832 0 0 1 89.924626 0z" p-id="10452" fill="#ffffff"></path></svg>